<svg width="268" height="56" viewBox="0 0 268 56" fill="none" xmlns="http://www.w3.org/2000/svg">
<mask id="mask0_24_4" style="mask-type:luminance" maskUnits="userSpaceOnUse" x="0" y="1" width="53" height="53">
<path d="M52.6265 1H0V53.6265H52.6265V1Z" fill="white"/>
</mask>
<g mask="url(#mask0_24_4)">
<path d="M13.1567 1H6.57834V7.57834H13.1567V1Z" fill="#FFD5E1"/>
<path d="M19.735 1H13.1567V7.57834H19.735V1Z" fill="#FFD5E1"/>
<path d="M26.3134 1H19.735V7.57834H26.3134V1Z" fill="#FFD5E1"/>
<path d="M32.8917 1H26.3133V7.57834H32.8917V1Z" fill="#FFD5E1"/>
<path d="M39.4699 1H32.8916V7.57834H39.4699V1Z" fill="#FFD5E1"/>
<path d="M6.57834 7.57834H0V14.1567H6.57834V7.57834Z" fill="#FFD5E1"/>
<path d="M13.1567 7.57834H6.57834V14.1567H13.1567V7.57834Z" fill="#FFD5E1"/>
<path d="M19.735 7.57834H13.1567V14.1567H19.735V7.57834Z" fill="#FFD5E1"/>
<path d="M26.3134 7.57834H19.735V14.1567H26.3134V7.57834Z" fill="#FFD5E1"/>
<path d="M32.8917 7.57834H26.3133V14.1567H32.8917V7.57834Z" fill="#FFD5E1"/>
<path d="M39.4699 7.57834H32.8916V14.1567H39.4699V7.57834Z" fill="#FFD5E1"/>
<path d="M46.0483 7.57834H39.4699V14.1567H46.0483V7.57834Z" fill="#FFD5E1"/>
<path d="M6.57834 14.1567H0V20.735H6.57834V14.1567Z" fill="#FFD5E1"/>
<path d="M13.1567 14.1567H6.57834V20.735H13.1567V14.1567Z" fill="#FFD5E1"/>
<path d="M19.735 14.1567H13.1567V20.735H19.735V14.1567Z" fill="#FFD5E1"/>
<path d="M26.3134 14.1567H19.735V20.735H26.3134V14.1567Z" fill="#FF89AC"/>
<path d="M32.8917 14.1567H26.3133V20.735H32.8917V14.1567Z" fill="#FF89AC"/>
<path d="M39.4699 14.1567H32.8916V20.735H39.4699V14.1567Z" fill="#FF89AC"/>
<path d="M46.0483 14.1567H39.4699V20.735H46.0483V14.1567Z" fill="#FF89AC"/>
<path d="M6.57834 20.735H0V27.3134H6.57834V20.735Z" fill="#FFD5E1"/>
<path d="M13.1567 20.735H6.57834V27.3134H13.1567V20.735Z" fill="#FFD5E1"/>
<path d="M19.735 20.735H13.1567V27.3134H19.735V20.735Z" fill="#FFD5E1"/>
<path d="M32.8917 20.735H26.3133V27.3134H32.8917V20.735Z" fill="#FFD5E1"/>
<path d="M39.4699 20.735H32.8916V27.3134H39.4699V20.735Z" fill="#FFD5E1"/>
<path d="M46.0483 20.735H39.4699V27.3134H46.0483V20.735Z" fill="#FFD5E1"/>
<path d="M6.57834 27.3133H0V33.8917H6.57834V27.3133Z" fill="#FFD5E1"/>
<path d="M13.1567 27.3133H6.57834V33.8917H13.1567V27.3133Z" fill="#FFD5E1"/>
<path d="M19.735 27.3133H13.1567V33.8917H19.735V27.3133Z" fill="#FFD5E1"/>
<path d="M32.8917 27.3133H26.3133V33.8917H32.8917V27.3133Z" fill="#FF89AC"/>
<path d="M39.4699 27.3133H32.8916V33.8917H39.4699V27.3133Z" fill="#FFD5E1"/>
<path d="M46.0483 27.3133H39.4699V33.8917H46.0483V27.3133Z" fill="#FFD5E1"/>
<path d="M13.1567 33.8916H6.57834V40.4699H13.1567V33.8916Z" fill="#FFD5E1"/>
<path d="M19.735 33.8916H13.1567V40.4699H19.735V33.8916Z" fill="#FFD5E1"/>
<path d="M26.3134 33.8916H19.735V40.4699H26.3134V33.8916Z" fill="#FFD5E1"/>
<path d="M32.8917 33.8916H26.3133V40.4699H32.8917V33.8916Z" fill="#FFD5E1"/>
<path d="M39.4699 33.8916H32.8916V40.4699H39.4699V33.8916Z" fill="#FFD5E1"/>
<path d="M6.57834 33.8916H0V40.4699H6.57834V33.8916Z" fill="#FFD5E1"/>
<path d="M13.1567 40.4699H6.57834V47.0483H13.1567V40.4699Z" fill="#FFD5E1"/>
<path d="M19.735 40.4699H13.1567V47.0483H19.735V40.4699Z" fill="#FFD5E1"/>
<path d="M26.3134 40.4699H19.735V47.0483H26.3134V40.4699Z" fill="#FFD5E1"/>
<path d="M32.8917 40.4699H26.3133V47.0483H32.8917V40.4699Z" fill="#FFD5E1"/>
<path d="M39.4699 40.4699H32.8916V47.0483H39.4699V40.4699Z" fill="#FFD5E1"/>
<path d="M46.0483 33.8916H39.4699V40.4699H46.0483V33.8916Z" fill="#FFD5E1"/>
<path d="M46.0483 40.4699H39.4699V47.0483H46.0483V40.4699Z" fill="#FF89AC"/>
<path d="M13.1567 47.0482H6.57834V53.6266H13.1567V47.0482Z" fill="#FF89AC"/>
<path d="M6.57834 40.4699H0V47.0483H6.57834V40.4699Z" fill="#FF89AC"/>
<path d="M19.735 47.0482H13.1567V53.6266H19.735V47.0482Z" fill="#FF89AC"/>
<path d="M26.3134 47.0482H19.735V53.6266H26.3134V47.0482Z" fill="#FF89AC"/>
<path d="M32.8917 47.0482H26.3133V53.6266H32.8917V47.0482Z" fill="#FF89AC"/>
<path d="M39.4699 47.0482H32.8916V53.6266H39.4699V47.0482Z" fill="#FF89AC"/>
</g>
<path d="M72 1H65.25V7.75H72V1Z" fill="#FFD5E1"/>
<path d="M65.25 1H58.5V7.75H65.25V1Z" fill="#FFD5E1"/>
<path d="M78.75 1H72V7.75H78.75V1Z" fill="#FFD5E1"/>
<path d="M65.25 7.75H58.5V14.5H65.25V7.75Z" fill="#FFD5E1"/>
<path d="M72 7.75H65.25V14.5H72V7.75Z" fill="#FFD5E1"/>
<path d="M78.75 7.75H72V14.5H78.75V7.75Z" fill="#FFD5E1"/>
<path d="M65.25 14.5H58.5V21.25H65.25V14.5Z" fill="#FFD5E1"/>
<path d="M72 14.5H65.25V21.25H72V14.5Z" fill="#FFD5E1"/>
<path d="M78.75 14.5H72V21.25H78.75V14.5Z" fill="#FFD5E1"/>
<path d="M65.25 21.25H58.5V28H65.25V21.25Z" fill="#FFD5E1"/>
<path d="M72 21.25H65.25V28H72V21.25Z" fill="#FFD5E1"/>
<path d="M78.75 21.25H72V28H78.75V21.25Z" fill="#FFD5E1"/>
<path d="M65.25 28H58.5V34.75H65.25V28Z" fill="#FFD5E1"/>
<path d="M72 28H65.25V34.75H72V28Z" fill="#FFD5E1"/>
<path d="M78.75 28H72V34.75H78.75V28Z" fill="#FFD5E1"/>
<path d="M65.25 34.75H58.5V41.5H65.25V34.75Z" fill="#FFD5E1"/>
<path d="M72 34.75H65.25V41.5H72V34.75Z" fill="#FFD5E1"/>
<path d="M78.75 34.75H72V41.5H78.75V34.75Z" fill="#FFD5E1"/>
<path d="M65.25 41.5H58.5V48.25H65.25V41.5Z" fill="#FFD5E1"/>
<path d="M72 41.5H65.25V48.25H72V41.5Z" fill="#FFD5E1"/>
<path d="M78.75 41.5H72V48.25H78.75V41.5Z" fill="#FFD5E1"/>
<path d="M72 48.25H65.25V55H72V48.25Z" fill="#FF89AC"/>
<path d="M65.25 48.25H58.5V55H65.25V48.25Z" fill="#FF89AC"/>
<path d="M78.75 48.25H72V55H78.75V48.25Z" fill="#FF89AC"/>
<path d="M104.75 0H97.875V6.875H104.75V0Z" fill="#FFD5E1"/>
<path d="M111.625 0H104.75V6.875H111.625V0Z" fill="#FFD5E1"/>
<path d="M118.5 0H111.625V6.875H118.5V0Z" fill="#FFD5E1"/>
<path d="M125.375 0H118.5V6.875H125.375V0Z" fill="#FFD5E1"/>
<path d="M97.875 6.875H91V13.75H97.875V6.875Z" fill="#FFD5E1"/>
<path d="M104.75 6.875H97.875V13.75H104.75V6.875Z" fill="#FFD5E1"/>
<path d="M111.625 6.875H104.75V13.75H111.625V6.875Z" fill="#FFD5E1"/>
<path d="M118.5 6.875H111.625V13.75H118.5V6.875Z" fill="#FFD5E1"/>
<path d="M118.5 13.75H111.625V20.625H118.5V13.75Z" fill="#FF89AC"/>
<path d="M132.25 6.875H125.375V13.75H132.25V6.875Z" fill="#FFD5E1"/>
<path d="M125.375 6.875H118.5V13.75H125.375V6.875Z" fill="#FFD5E1"/>
<path d="M139.125 6.875H132.25V13.75H139.125V6.875Z" fill="#FFD5E1"/>
<path d="M132.25 0H125.375V6.875H132.25V0Z" fill="#FFD5E1"/>
<path d="M97.875 13.75H91V20.625H97.875V13.75Z" fill="#FFD5E1"/>
<path d="M104.75 13.75H97.875V20.625H104.75V13.75Z" fill="#FFD5E1"/>
<path d="M111.625 13.75H104.75V20.625H111.625V13.75Z" fill="#FFD5E1"/>
<path d="M125.375 13.75H118.5V20.625H125.375V13.75Z" fill="#FFD5E1"/>
<path d="M132.25 13.75H125.375V20.625H132.25V13.75Z" fill="#FFD5E1"/>
<path d="M139.125 13.75H132.25V20.625H139.125V13.75Z" fill="#FFD5E1"/>
<path d="M97.875 20.625H91V27.5H97.875V20.625Z" fill="#FFD5E1"/>
<path d="M104.75 20.625H97.875V27.5H104.75V20.625Z" fill="#FFD5E1"/>
<path d="M111.625 20.625H104.75V27.5H111.625V20.625Z" fill="#FFD5E1"/>
<path d="M125.375 20.625H118.5V27.5H125.375V20.625Z" fill="#FFD5E1"/>
<path d="M132.25 20.625H125.375V27.5H132.25V20.625Z" fill="#FFD5E1"/>
<path d="M139.125 20.625H132.25V27.5H139.125V20.625Z" fill="#FFD5E1"/>
<path d="M97.875 27.5H91V34.375H97.875V27.5Z" fill="#FFD5E1"/>
<path d="M104.75 27.5H97.875V34.375H104.75V27.5Z" fill="#FFD5E1"/>
<path d="M111.625 27.5H104.75V34.375H111.625V27.5Z" fill="#FFD5E1"/>
<path d="M125.375 27.5H118.5V34.375H125.375V27.5Z" fill="#FFD5E1"/>
<path d="M132.25 27.5H125.375V34.375H132.25V27.5Z" fill="#FFD5E1"/>
<path d="M139.125 27.5H132.25V34.375H139.125V27.5Z" fill="#FFD5E1"/>
<path d="M97.875 34.375H91V41.25H97.875V34.375Z" fill="#FFD5E1"/>
<path d="M104.75 34.375H97.875V41.25H104.75V34.375Z" fill="#FFD5E1"/>
<path d="M111.625 34.375H104.75V41.25H111.625V34.375Z" fill="#FFD5E1"/>
<path d="M118.5 34.375H111.625V41.25H118.5V34.375Z" fill="#FFD5E1"/>
<path d="M125.375 34.375H118.5V41.25H125.375V34.375Z" fill="#FFD5E1"/>
<path d="M132.25 34.375H125.375V41.25H132.25V34.375Z" fill="#FFD5E1"/>
<path d="M139.125 34.375H132.25V41.25H139.125V34.375Z" fill="#FFD5E1"/>
<path d="M97.875 41.25H91V48.125H97.875V41.25Z" fill="#FF89AC"/>
<path d="M104.75 41.25H97.875V48.125H104.75V41.25Z" fill="#FFD5E1"/>
<path d="M111.625 41.25H104.75V48.125H111.625V41.25Z" fill="#FFD5E1"/>
<path d="M118.5 41.25H111.625V48.125H118.5V41.25Z" fill="#FFD5E1"/>
<path d="M125.375 41.25H118.5V48.125H125.375V41.25Z" fill="#FFD5E1"/>
<path d="M132.25 41.25H125.375V48.125H132.25V41.25Z" fill="#FFD5E1"/>
<path d="M139.125 41.25H132.25V48.125H139.125V41.25Z" fill="#FF89AC"/>
<path d="M104.75 48.125H97.875V55H104.75V48.125Z" fill="#FF89AC"/>
<path d="M111.625 48.125H104.75V55H111.625V48.125Z" fill="#FF89AC"/>
<path d="M118.5 48.125H111.625V55H118.5V48.125Z" fill="#FF89AC"/>
<path d="M125.375 48.125H118.5V55H125.375V48.125Z" fill="#FF89AC"/>
<path d="M132.25 48.125H125.375V55H132.25V48.125Z" fill="#FF89AC"/>
<path d="M165.75 0H158.875V6.875H165.75V0Z" fill="#FFD5E1"/>
<path d="M172.625 0H165.75V6.875H172.625V0Z" fill="#FFD5E1"/>
<path d="M179.5 0H172.625V6.875H179.5V0Z" fill="#FFD5E1"/>
<path d="M186.375 0H179.5V6.875H186.375V0Z" fill="#FFD5E1"/>
<path d="M193.25 0H186.375V6.875H193.25V0Z" fill="#FFD5E1"/>
<path d="M158.875 6.875H152V13.75H158.875V6.875Z" fill="#FFD5E1"/>
<path d="M165.75 6.875H158.875V13.75H165.75V6.875Z" fill="#FFD5E1"/>
<path d="M172.625 6.875H165.75V13.75H172.625V6.875Z" fill="#FFD5E1"/>
<path d="M179.5 6.875H172.625V13.75H179.5V6.875Z" fill="#FFD5E1"/>
<path d="M186.375 6.875H179.5V13.75H186.375V6.875Z" fill="#FFD5E1"/>
<path d="M193.25 6.875H186.375V13.75H193.25V6.875Z" fill="#FFD5E1"/>
<path d="M200.125 6.875H193.25V13.75H200.125V6.875Z" fill="#FFD5E1"/>
<path d="M158.875 13.75H152V20.625H158.875V13.75Z" fill="#FFD5E1"/>
<path d="M165.75 13.75H158.875V20.625H165.75V13.75Z" fill="#FFD5E1"/>
<path d="M172.625 13.75H165.75V20.625H172.625V13.75Z" fill="#FFD5E1"/>
<path d="M179.5 13.75H172.625V20.625H179.5V13.75Z" fill="#FF89AC"/>
<path d="M186.375 13.75H179.5V20.625H186.375V13.75Z" fill="#FFD5E1"/>
<path d="M193.25 13.75H186.375V20.625H193.25V13.75Z" fill="#FFD5E1"/>
<path d="M200.125 13.75H193.25V20.625H200.125V13.75Z" fill="#FFD5E1"/>
<path d="M158.875 20.625H152V27.5H158.875V20.625Z" fill="#FFD5E1"/>
<path d="M165.75 20.625H158.875V27.5H165.75V20.625Z" fill="#FFD5E1"/>
<path d="M172.625 20.625H165.75V27.5H172.625V20.625Z" fill="#FFD5E1"/>
<path d="M186.375 20.625H179.5V27.5H186.375V20.625Z" fill="#FF89AC"/>
<path d="M193.25 20.625H186.375V27.5H193.25V20.625Z" fill="#FF89AC"/>
<path d="M200.125 20.625H193.25V27.5H200.125V20.625Z" fill="#FF89AC"/>
<path d="M158.875 27.5H152V34.375H158.875V27.5Z" fill="#FFD5E1"/>
<path d="M165.75 27.5H158.875V34.375H165.75V27.5Z" fill="#FFD5E1"/>
<path d="M172.625 27.5H165.75V34.375H172.625V27.5Z" fill="#FFD5E1"/>
<path d="M186.375 27.5H179.5V34.375H186.375V27.5Z" fill="#FFD5E1"/>
<path d="M193.25 27.5H186.375V34.375H193.25V27.5Z" fill="#FFD5E1"/>
<path d="M200.125 27.5H193.25V34.375H200.125V27.5Z" fill="#FFD5E1"/>
<path d="M158.875 34.375H152V41.25H158.875V34.375Z" fill="#FFD5E1"/>
<path d="M165.75 34.375H158.875V41.25H165.75V34.375Z" fill="#FFD5E1"/>
<path d="M172.625 34.375H165.75V41.25H172.625V34.375Z" fill="#FFD5E1"/>
<path d="M179.5 34.375H172.625V41.25H179.5V34.375Z" fill="#FFD5E1"/>
<path d="M186.375 34.375H179.5V41.25H186.375V34.375Z" fill="#FFD5E1"/>
<path d="M193.25 34.375H186.375V41.25H193.25V34.375Z" fill="#FFD5E1"/>
<path d="M200.125 34.375H193.25V41.25H200.125V34.375Z" fill="#FFD5E1"/>
<path d="M158.875 41.25H152V48.125H158.875V41.25Z" fill="#FF89AC"/>
<path d="M165.75 41.25H158.875V48.125H165.75V41.25Z" fill="#FFD5E1"/>
<path d="M172.625 41.25H165.75V48.125H172.625V41.25Z" fill="#FFD5E1"/>
<path d="M179.5 41.25H172.625V48.125H179.5V41.25Z" fill="#FFD5E1"/>
<path d="M186.375 41.25H179.5V48.125H186.375V41.25Z" fill="#FFD5E1"/>
<path d="M193.25 41.25H186.375V48.125H193.25V41.25Z" fill="#FFD5E1"/>
<path d="M200.125 41.25H193.25V48.125H200.125V41.25Z" fill="#FF89AC"/>
<path d="M165.75 48.125H158.875V55H165.75V48.125Z" fill="#FF89AC"/>
<path d="M172.625 48.125H165.75V55H172.625V48.125Z" fill="#FF89AC"/>
<path d="M179.5 48.125H172.625V55H179.5V48.125Z" fill="#FF89AC"/>
<path d="M186.375 48.125H179.5V55H186.375V48.125Z" fill="#FF89AC"/>
<path d="M193.25 48.125H186.375V55H193.25V48.125Z" fill="#FF89AC"/>
<mask id="mask1_24_4" style="mask-type:luminance" maskUnits="userSpaceOnUse" x="212" y="0" width="56" height="56">
<path d="M267.652 0H212.046V55.6054H267.652V0Z" fill="white"/>
</mask>
<g mask="url(#mask1_24_4)">
<path d="M225.948 0H218.997V6.9507H225.948V0Z" fill="#FFD5E1"/>
<path d="M232.899 0H225.948V6.9507H232.899V0Z" fill="#FFD5E1"/>
<path d="M239.849 0H232.898V6.9507H239.849V0Z" fill="#FFD5E1"/>
<path d="M246.8 0H239.849V6.9507H246.8V0Z" fill="#FFD5E1"/>
<path d="M253.75 0H246.8V6.9507H253.75V0Z" fill="#FFD5E1"/>
<path d="M218.997 6.9507H212.046V13.9014H218.997V6.9507Z" fill="#FFD5E1"/>
<path d="M225.948 6.9507H218.997V13.9014H225.948V6.9507Z" fill="#FFD5E1"/>
<path d="M232.899 6.9507H225.948V13.9014H232.899V6.9507Z" fill="#FFD5E1"/>
<path d="M239.849 6.9507H232.898V13.9014H239.849V6.9507Z" fill="#FFD5E1"/>
<path d="M246.8 6.9507H239.849V13.9014H246.8V6.9507Z" fill="#FFD5E1"/>
<path d="M253.75 6.9507H246.8V13.9014H253.75V6.9507Z" fill="#FFD5E1"/>
<path d="M260.701 6.9507H253.75V13.9014H260.701V6.9507Z" fill="#FFD5E1"/>
<path d="M218.997 13.9014H212.046V20.8521H218.997V13.9014Z" fill="#FFD5E1"/>
<path d="M225.948 13.9014H218.997V20.8521H225.948V13.9014Z" fill="#FFD5E1"/>
<path d="M232.899 13.9014H225.948V20.8521H232.899V13.9014Z" fill="#FFD5E1"/>
<path d="M239.849 13.9014H232.898V20.8521H239.849V13.9014Z" fill="#FF89AC"/>
<path d="M246.8 13.9014H239.849V20.8521H246.8V13.9014Z" fill="#FFD5E1"/>
<path d="M253.75 13.9014H246.8V20.8521H253.75V13.9014Z" fill="#FFD5E1"/>
<path d="M260.701 13.9014H253.75V20.8521H260.701V13.9014Z" fill="#FFD5E1"/>
<path d="M218.997 20.8521H212.046V27.8028H218.997V20.8521Z" fill="#FFD5E1"/>
<path d="M225.948 20.8521H218.997V27.8028H225.948V20.8521Z" fill="#FFD5E1"/>
<path d="M232.899 20.8521H225.948V27.8028H232.899V20.8521Z" fill="#FFD5E1"/>
<path d="M246.8 20.8521H239.849V27.8028H246.8V20.8521Z" fill="#FFD5E1"/>
<path d="M253.75 20.8521H246.8V27.8028H253.75V20.8521Z" fill="#FFD5E1"/>
<path d="M260.701 20.8521H253.75V27.8028H260.701V20.8521Z" fill="#FFD5E1"/>
<path d="M218.997 27.8028H212.046V34.7535H218.997V27.8028Z" fill="#FFD5E1"/>
<path d="M225.948 27.8028H218.997V34.7535H225.948V27.8028Z" fill="#FFD5E1"/>
<path d="M232.899 27.8028H225.948V34.7535H232.899V27.8028Z" fill="#FFD5E1"/>
<path d="M239.849 27.8028H232.898V34.7535H239.849V27.8028Z" fill="#FFD5E1"/>
<path d="M246.8 27.8028H239.849V34.7535H246.8V27.8028Z" fill="#FFD5E1"/>
<path d="M253.75 27.8028H246.8V34.7535H253.75V27.8028Z" fill="#FFD5E1"/>
<path d="M260.701 27.8028H253.75V34.7535H260.701V27.8028Z" fill="#FFD5E1"/>
<path d="M218.997 34.7534H212.046V41.7041H218.997V34.7534Z" fill="#FFD5E1"/>
<path d="M225.948 34.7534H218.997V41.7041H225.948V34.7534Z" fill="#FFD5E1"/>
<path d="M232.899 34.7534H225.948V41.7041H232.899V34.7534Z" fill="#FFD5E1"/>
<path d="M239.849 34.7534H232.898V41.7041H239.849V34.7534Z" fill="#FF89AC"/>
<path d="M246.8 34.7534H239.849V41.7041H246.8V34.7534Z" fill="#FFD5E1"/>
<path d="M253.75 34.7534H246.8V41.7041H253.75V34.7534Z" fill="#FFD5E1"/>
<path d="M260.701 34.7534H253.75V41.7041H260.701V34.7534Z" fill="#FFD5E1"/>
<path d="M218.997 41.7041H212.046V48.6548H218.997V41.7041Z" fill="#FFD5E1"/>
<path d="M225.948 41.7041H218.997V48.6548H225.948V41.7041Z" fill="#FFD5E1"/>
<path d="M232.899 41.7041H225.948V48.6548H232.899V41.7041Z" fill="#FFD5E1"/>
<path d="M246.8 41.7041H239.849V48.6548H246.8V41.7041Z" fill="#FFD5E1"/>
<path d="M253.75 41.7041H246.8V48.6548H253.75V41.7041Z" fill="#FFD5E1"/>
<path d="M260.701 41.7041H253.75V48.6548H260.701V41.7041Z" fill="#FFD5E1"/>
<path d="M218.997 48.6547H212.046V55.6054H218.997V48.6547Z" fill="#FF89AC"/>
<path d="M225.948 48.6547H218.997V55.6054H225.948V48.6547Z" fill="#FF89AC"/>
<path d="M232.899 48.6547H225.948V55.6054H232.899V48.6547Z" fill="#FF89AC"/>
<path d="M246.8 48.6547H239.849V55.6054H246.8V48.6547Z" fill="#FF89AC"/>
<path d="M253.75 48.6547H246.8V55.6054H253.75V48.6547Z" fill="#FF89AC"/>
<path d="M260.701 48.6547H253.75V55.6054H260.701V48.6547Z" fill="#FF89AC"/>
</g>
</svg>
