<svg width="55" height="55" viewBox="0 0 55 55" fill="none" xmlns="http://www.w3.org/2000/svg">
<path d="M20.9558 1.79266C19.4442 2.73119 15.8714 4.53605 12.9857 5.76336C4.25987 9.58967 0.0687075 15.2208 0 23.1622C0 25.4003 0.343538 27.5661 0.824491 28.0714C1.44286 28.7212 8.31361 28.9378 27.6204 28.9378C57.096 28.9378 54.966 29.4431 54.966 22.6569C54.8973 15.654 50.7749 9.87844 43.2858 6.41311C40.8123 5.258 37.0334 3.38094 34.9034 2.22583C29.8878 -0.589754 24.9408 -0.734142 20.9558 1.79266Z" fill="white"/>
<path d="M5.70276 35.9407C4.94697 38.0343 6.80208 50.8127 8.17623 52.762C9.27555 54.3502 10.0313 54.5668 14.2225 54.7834L19.032 55L18.0014 49.2966C16.8334 43.0157 17.1082 41.2109 19.1694 41.2109C21.0245 41.2109 21.3681 42.005 22.6735 48.7913L23.7728 54.5668H27.483H31.1933L32.2926 48.7913C33.598 42.005 33.9416 41.2109 35.7967 41.2109C37.8579 41.2109 38.1327 43.0157 36.9647 49.2966L35.9341 55L40.7436 54.7834C44.9348 54.5668 45.6905 54.3502 46.7899 52.762C48.164 50.8127 50.0191 38.0343 49.2633 35.9407C48.8511 34.8577 46.8586 34.7134 27.483 34.7134C8.10752 34.7134 6.115 34.8577 5.70276 35.9407Z" fill="white"/>
</svg>
