<svg width="55" height="55" viewBox="0 0 55 55" fill="none" xmlns="http://www.w3.org/2000/svg">
<path d="M12.6042 50.4167C11.6875 50.4167 10.8854 50.0729 10.1979 49.3854C9.51044 48.6979 9.16669 47.8958 9.16669 46.9792V17.1875C9.16669 16.2708 9.51044 15.4687 10.1979 14.7812C10.8854 14.0937 11.6875 13.75 12.6042 13.75H18.9063V13.1771C18.9063 10.7708 19.737 8.73697 21.3985 7.07552C23.0599 5.41406 25.0938 4.58333 27.5 4.58333C29.9063 4.58333 31.9401 5.41406 33.6016 7.07552C35.263 8.73697 36.0938 10.7708 36.0938 13.1771V13.75H42.3959C43.3125 13.75 44.1146 14.0937 44.8021 14.7812C45.4896 15.4687 45.8334 16.2708 45.8334 17.1875V46.9792C45.8334 47.8958 45.4896 48.6979 44.8021 49.3854C44.1146 50.0729 43.3125 50.4167 42.3959 50.4167H12.6042ZM12.6042 46.9792H42.3959V17.1875H36.0938V22.3437C36.0938 22.8403 35.9314 23.2509 35.6068 23.5755C35.2821 23.9002 34.8715 24.0625 34.375 24.0625C33.8785 24.0625 33.4679 23.9002 33.1432 23.5755C32.8186 23.2509 32.6563 22.8403 32.6563 22.3437V17.1875H22.3438V22.3437C22.3438 22.8403 22.1814 23.2509 21.8568 23.5755C21.5321 23.9002 21.1215 24.0625 20.625 24.0625C20.1285 24.0625 19.7179 23.9002 19.3932 23.5755C19.0686 23.2509 18.9063 22.8403 18.9063 22.3437V17.1875H12.6042V46.9792ZM22.3438 13.75H32.6563V13.1771C32.6563 11.7257 32.1597 10.5035 31.1667 9.51041C30.1736 8.51736 28.9514 8.02083 27.5 8.02083C26.0486 8.02083 24.8264 8.51736 23.8334 9.51041C22.8403 10.5035 22.3438 11.7257 22.3438 13.1771V13.75Z" fill="white"/>
</svg>
